<svg width="24" height="24" viewBox="0 0 24 24" fill="none" xmlns="http://www.w3.org/2000/svg">
<mask id="mask0_25_333" style="mask-type:alpha" maskUnits="userSpaceOnUse" x="3" y="3" width="18" height="18">
<rect x="3" y="3" width="18" height="18" fill="#D9D9D9"/>
</mask>
<g mask="url(#mask0_25_333)">
<path d="M6.75 17.25H7.8L14.2687 10.7812L13.2188 9.73125L6.75 16.2V17.25ZM17.475 9.69375L14.2875 6.54375L15.3375 5.49375C15.625 5.20625 15.9783 5.0625 16.3973 5.0625C16.8158 5.0625 17.1687 5.20625 17.4562 5.49375L18.5062 6.54375C18.7937 6.83125 18.9437 7.17825 18.9562 7.58475C18.9687 7.99075 18.8313 8.3375 18.5438 8.625L17.475 9.69375ZM16.3875 10.8L8.4375 18.75H5.25V15.5625L13.2 7.6125L16.3875 10.8Z" fill="#404040"/>
</g>
</svg>
